<svg width="640" height="320" viewBox="0 0 640 320" fill="none" xmlns="http://www.w3.org/2000/svg">
<rect width="640" height="320" fill="white"/>
<rect x="253" y="80" width="7" height="39" fill="#8EC7FF"/>
<rect x="317" y="80" width="7" height="39" fill="#8EC7FF"/>
<rect x="256" y="72.5027" width="7.78194" height="85.574" transform="rotate(-45 256 72.5027)" fill="#8EC7FF"/>
<rect x="380.51" y="67" width="7.78194" height="85.574" transform="rotate(45 380.51 67)" fill="#8EC7FF"/>
<circle cx="257" cy="69" r="15" fill="#0141C4"/>
<circle cx="321" cy="69" r="15" fill="#0141C4"/>
<circle cx="321" cy="131" r="15" fill="#0141C4"/>
<circle cx="257" cy="131" r="15" fill="#1195F7"/>
<rect x="395.415" y="134.913" width="7.78194" height="56.445" transform="rotate(135 395.415 134.913)" fill="#8EC7FF"/>
<circle cx="385" cy="69" r="15" fill="#1195F7"/>
<circle cx="385" cy="131" r="15" fill="#1195F7"/>
<path d="M180.34 196.83C174.22 196.83 169.36 199.08 166.39 203.76V198H156.67V243H166.39V218.88C166.39 209.7 171.43 205.92 177.82 205.92C183.94 205.92 187.9 209.52 187.9 216.36V243H197.62V215.37C197.62 203.67 190.42 196.83 180.34 196.83ZM229.326 244.17C242.556 244.17 253.086 233.82 253.086 220.5C253.086 207.09 242.556 196.83 229.326 196.83C216.186 196.83 205.566 207.09 205.566 220.5C205.566 233.82 216.186 244.17 229.326 244.17ZM229.326 234.72C221.406 234.72 215.286 228.69 215.286 220.5C215.286 212.31 221.406 206.28 229.326 206.28C237.246 206.28 243.366 212.31 243.366 220.5C243.366 228.69 237.246 234.72 229.326 234.72ZM297.515 180V204.39C294.095 199.71 288.785 196.83 281.765 196.83C269.525 196.83 259.355 207.09 259.355 220.5C259.355 233.82 269.525 244.17 281.765 244.17C288.785 244.17 294.095 241.29 297.515 236.52V243H307.235V180H297.515ZM283.295 234.9C275.195 234.9 269.075 228.87 269.075 220.5C269.075 212.13 275.195 206.1 283.295 206.1C291.395 206.1 297.515 212.13 297.515 220.5C297.515 228.87 291.395 234.9 283.295 234.9ZM326.215 224.64H362.035C362.215 223.38 362.395 221.94 362.395 220.59C362.395 207.63 353.215 196.83 339.805 196.83C325.675 196.83 316.045 207.18 316.045 220.5C316.045 234 325.675 244.17 340.525 244.17C349.345 244.17 356.095 240.48 360.235 234.36L352.225 229.68C350.065 232.83 346.015 235.26 340.615 235.26C333.415 235.26 327.745 231.66 326.215 224.64ZM326.125 216.72C327.475 209.97 332.425 205.65 339.715 205.65C345.565 205.65 351.235 208.98 352.585 216.72H326.125ZM433.227 243L412.707 220.05L432.507 198H420.627L403.167 217.89V180H393.447V243H403.167V222.21L421.617 243H433.227ZM444.626 191.25C448.046 191.25 450.836 188.37 450.836 185.04C450.836 181.62 448.046 178.83 444.626 178.83C441.206 178.83 438.416 181.62 438.416 185.04C438.416 188.37 441.206 191.25 444.626 191.25ZM439.766 243H449.486V198H439.766V243ZM485.882 207.36V198H474.722V185.4L465.002 188.28V198H456.722V207.36H465.002V228.96C465.002 240.66 470.942 244.8 485.882 243V234.27C478.502 234.63 474.722 234.72 474.722 228.96V207.36H485.882Z" fill="#0141C4"/>
</svg>
